<svg xmlns="http://www.w3.org/2000/svg" style="display: none;">
  <!-- Main dog icon -->
  <symbol id="dog-main" viewBox="0 0 24 24">
    <path d="M4 19h16v-8h-8v-2h6.5c1.38 0 2.5-1.12 2.5-2.5S19.88 4 18.5 4H14V2h-4v2H4v15zm4-12h6v2H8V7zm10 10H6v-2h12v2zm0-4H6v-2h12v2z"/>
    <path d="M18.5 6c.55 0 1 .45 1 1s-.45 1-1 1h-13c-.55 0-1-.45-1-1s.45-1 1-1h13z"/>
  </symbol>

  <!-- User profile icon -->
  <symbol id="user-profile" viewBox="0 0 24 24">
    <circle cx="12" cy="8" r="4"/>
    <path d="M20 19v1a1 1 0 0 1-1 1H5a1 1 0 0 1-1-1v-1a6 6 0 0 1 6-6h4a6 6 0 0 1 6 6z"/>
  </symbol>

  <!-- Dog breed icons -->
  <symbol id="labrador" viewBox="0 0 24 24">
    <path d="M15.5 7.5c-.4 0-.8-.1-1.4-.4-1.9-.9-2.6-.4-3.1 0-1.5 1.2-3.9 1.5-5.7 1.5l-.7-.1c-1-.2-1.6-.7-1.6-1.5 0-.7.5-1.2 1.3-1.5.8-.2 1.9-.1 2.7-.1.9 0 1.8-.2 2.5-.6 1.1-.8 2.1-1.8 3.5-1.8h.3c.6.1 1.1.3 1.6.7.5.4 1 .9 1.5 1.2.9.6 1.7 1.3 1.7 2.2-.1.8-.8 1.4-1.6 1.4z"/>
    <path d="M22 15v3.5c0 1.9-1.6 3.5-3.5 3.5h-13C3.6 22 2 20.4 2 18.5v-6.7c3.4 0 5.3-.3 7.4-2.5v5.2c0 .6.4 1 1 1h.3c1.5-.1 2.7-1.4 2.7-3 0-1.7-1.3-3-3-3V8c2 0 3 .8 4 .8 1.8 0 3.5-1.8 5.5-1.8l1.1.1c.7.1 1.1.6 1.1 1.4v6.5z"/>
  </symbol>

  <symbol id="german-shepherd" viewBox="0 0 24 24">
    <path d="M15.8 5.2C15.3 4.5 14.7 4 13.8 4c-1 0-1.8.6-2.3 1.3-.6.9-1.1 1.4-1.8 1.4-.7 0-1.3-.5-1.8-1.2-.5-.7-1.2-1.3-2.1-1.3-.9 0-1.7.6-2.2 1.3-.8 1.2-1.5 2.6-1.5 4.2v5.8c0 1.4.3 2.6 1 3.7.7 1 1.9 1.7 3.3 1.7h7c1.4 0 2.6-.7 3.3-1.7.7-1 1-2.3 1-3.7V9.7c0-1.6-.7-3-1.9-4.5z"/>
    <path d="M10.5 8c-1.8 0-3.5.3-4.9.8l-.6.3v2.2c0 .6.4 1 1 1h3v2c0 .6.4 1 1 1h.5c1.4 0 2.5-1.4 2.5-3V9c-.8-.7-1.7-1-2.5-1z"/>
    <path d="M19 7.5c-1.6 0-3 1.4-3 3V13c0 1.7 1.3 3 3 3h1c.6 0 1-.4 1-1V8.5c0-.6-.4-1-1-1h-1z"/>
  </symbol>

  <symbol id="bulldog" viewBox="0 0 24 24">
    <path d="M12 3C8.4 3 5.5 5.9 5.5 9.5v4c0 4.1 3.4 7.5 7.5 7.5s7.5-3.4 7.5-7.5v-3.5c0-1.9-1.6-3.5-3.5-3.5h-1C14.6 6.5 13 4.9 13 3h-1z"/>
    <path d="M10.5 8c-1.1 0-2 .9-2 2 0 .6-.4 1-1 1h-1c-.6 0-1 .4-1 1v1c0 .6.4 1 1 1h1.4c.3 0 .6-.3.6-.6v-.6c0-.3.1-.5.2-.7l.4-.4c.2-.2.4-.3.6-.3h2.6c.2 0 .4.1.6.3l.4.4c.1.2.2.4.2.7v.6c0 .3.3.6.6.6H15c.6 0 1-.4 1-1v-1c0-.6-.4-1-1-1h-1c-.6 0-1-.4-1-1 0-1.1-.9-2-2-2h-.5z"/>
  </symbol>

  <symbol id="golden-retriever" viewBox="0 0 24 24">
    <path d="M19 5h-2.2c-1.7 0-3 1.3-3 3v1H7.2C4.9 9 3 10.9 3 13.2v3.5C3 19.1 4.9 21 7.2 21h9.5c2.4 0 4.2-1.9 4.2-4.2V13h1c1.7 0 3-1.3 3-3V8c.1-1.7-1.2-3-2.9-3z"/>
    <path d="M9 12c-1.1 0-2 .9-2 2s.9 2 2 2 2-.9 2-2-.9-2-2-2zm9.9-8.9c-.2-.1-.4-.1-.6 0l-3 1c-.4.1-.6.5-.6.9v1.5c0 .6.4 1 1 1h3c.6 0 1-.4 1-1V4c0-.4-.3-.8-.8-.9z"/>
  </symbol>

  <symbol id="husky" viewBox="0 0 24 24">
    <path d="M21 8.5v-2c0-.8-.7-1.5-1.5-1.5H17c-.8 0-1.4.6-1.5 1.3-.1.7-.4 1.4-1.1 1.9-.5.4-1 .4-1.4.4-.4 0-.9-.1-1.4-.4-.7-.4-1-1.2-1.1-1.9-.1-.7-.7-1.3-1.5-1.3H4.5C3.7 5 3 5.7 3 6.5v2C3 9.9 4.1 11 5.5 11H7c.6 0 1 .4 1 1v.5c0 .3.2.5.5.5h7c.3 0 .5-.2.5-.5V12c0-.6.4-1 1-1h1.5c1.4 0 2.5-1.1 2.5-2.5z"/>
    <path d="M6 13c-1.1 0-2 .9-2 2v1c0 3.3 2.7 6 6 6h4c3.3 0 6-2.7 6-6v-1c0-1.1-.9-2-2-2H6z"/>
    <path d="M10 14c-1.1 0-2 .9-2 2s.9 2 2 2 2-.9 2-2-.9-2-2-2zm4 0c-1.1 0-2 .9-2 2s.9 2 2 2 2-.9 2-2-.9-2-2-2z"/>
  </symbol>

  <symbol id="poodle" viewBox="0 0 24 24">
    <path d="M18.5 5c-.8 0-1.5.7-1.5 1.5v.1c-.5-.4-1.2-.6-2-.6-1.4 0-2.6.9-3 2.2-.4-.5-1-1-1.8-1.6-.9-.7-2-1.5-3.5-1.6-1.2 0-2.2.5-2.7 1.2-.8 1-.9 2.4-.9 3.3 0 .4 0 .9.2 1.3.2.7.7 1.3 1.2 1.8.6.5 1.3.8 2 1.1.3 0 .5.1.5.3v4c0 .8.7 1.5 1.5 1.5S10 18.8 10 18v-2h4v2c0 .8.7 1.5 1.5 1.5s1.5-.7 1.5-1.5v-4c0-.2.2-.3.5-.3.7-.2 1.4-.5 2-1.1.6-.5 1-1.1 1.2-1.8.2-.4.3-.8.3-1.3 0-1.1 0-2.6-1-3.5z"/>
    <path d="M12 10c-.8 0-1.5.7-1.5 1.5S11.2 13 12 13s1.5-.7 1.5-1.5S12.8 10 12 10zm4.5-7H15c-.3 0-.5.2-.5.5v1c0 .3.2.5.5.5h1.5c.3 0 .5-.2.5-.5v-1c0-.3-.2-.5-.5-.5zm-7 0H8c-.3 0-.5.2-.5.5v1c0 .3.2.5.5.5h1.5c.3 0 .5-.2.5-.5v-1c0-.3-.2-.5-.5-.5z"/>
  </symbol>

  <symbol id="corgi" viewBox="0 0 24 24">
    <path d="M19 7h-3c-.6 0-1 .4-1 1v1h-.3c-.5 0-1-.1-1.4-.5-.4-.3-.8-.5-1.3-.5s-.9.2-1.3.5c-.4.3-.9.5-1.4.5H9V8c0-.6-.4-1-1-1H5c-1.7 0-3 1.3-3 3v5c0 3.3 2.7 6 6 6h8c3.3 0 6-2.7 6-6v-5c0-1.7-1.3-3-3-3z"/>
    <path d="M8 12.5c-1.1 0-2 .9-2 2s.9 2 2 2 2-.9 2-2-.9-2-2-2zm8 0c-1.1 0-2 .9-2 2s.9 2 2 2 2-.9 2-2-.9-2-2-2zM19 5h-2c-.6 0-1 .4-1 1v1h3c.6 0 1-.4 1-1s-.4-1-1-1zM7 5H5c-.6 0-1 .4-1 1s.4 1 1 1h3V6c0-.6-.4-1-1-1z"/>
  </symbol>

  <symbol id="pug" viewBox="0 0 24 24">
    <path d="M12 2C6.5 2 2 6.5 2 12v4c0 3.3 2.7 6 6 6h8c3.3 0 6-2.7 6-6v-4c0-5.5-4.5-10-10-10z"/>
    <path d="M12 7c-2.8 0-5 2.2-5 5v1.5c0 .3.2.5.5.5H9c.6 0 1 .4 1 1s.4 1 1 1h4c.6 0 1-.4 1-1s.4-1 1-1h1.5c.3 0 .5-.2.5-.5V12c0-2.8-2.2-5-5-5z"/>
    <path d="M9 12c-.6 0-1-.4-1-1s.4-1 1-1 1 .4 1 1-.4 1-1 1zm6 0c-.6 0-1-.4-1-1s.4-1 1-1 1 .4 1 1-.4 1-1 1z"/>
    <circle cx="12" cy="14" r="1.5" fill="#fff"/>
  </symbol>

  <symbol id="beagle" viewBox="0 0 24 24">
    <path d="M12 3C8.1 3 5 6.1 5 10v1.5c0 .8-.7 1.5-1.5 1.5h-1c-.3 0-.5.2-.5.5v2c0 .3.2.5.5.5h1c1.1 0 2 .9 2 2V19c0 1.1.9 2 2 2h9c1.1 0 2-.9 2-2v-1c0-1.1.9-2 2-2h1c.3 0 .5-.2.5-.5v-2c0-.3-.2-.5-.5-.5h-1c-.8 0-1.5-.7-1.5-1.5V10c0-3.9-3.1-7-7-7z"/>
    <path d="M10 13c-1.1 0-2 .9-2 2s.9 2 2 2 2-.9 2-2-.9-2-2-2zm9-8.5c0-.8-.7-1.5-1.5-1.5h-1c-.3 0-.5.2-.5.5V5c0 .3.2.5.5.5h2c.3 0 .5-.2.5-.5v-1zM8 5c0-.3-.2-.5-.5-.5h-1C5.7 4.5 5 5.2 5 6v1c0 .3.2.5.5.5h2c.3 0 .5-.2.5-.5V5z"/>
  </symbol>

  <symbol id="chihuahua" viewBox="0 0 24 24">
    <path d="M12 3C8.7 3 6 5.7 6 9v2c0 1.1-.9 2-2 2H3.5c-.3 0-.5.2-.5.5v1c0 .3.2.5.5.5H4c1.1 0 2 .9 2 2v2c0 1.1.9 2 2 2h8c1.1 0 2-.9 2-2v-2c0-1.1.9-2 2-2h.5c.3 0 .5-.2.5-.5v-1c0-.3-.2-.5-.5-.5H20c-1.1 0-2-.9-2-2V9c0-3.3-2.7-6-6-6z"/>
    <path d="M10 12c-.6 0-1 .4-1 1v1c0 .6.4 1 1 1s1-.4 1-1v-1c0-.6-.4-1-1-1zm4 0c-.6 0-1 .4-1 1v1c0 .6.4 1 1 1s1-.4 1-1v-1c0-.6-.4-1-1-1zm4-7.5c0-.3-.2-.5-.5-.5h-1c-.3 0-.5.2-.5.5v1c0 .3.2.5.5.5h1c.3 0 .5-.2.5-.5v-1zM8 5.5c0 .3-.2.5-.5.5h-1c-.3 0-.5-.2-.5-.5v-1c0-.3.2-.5.5-.5h1c.3 0 .5.2.5.5v1z"/>
  </symbol>
</svg>
